<mxfile host="65bd71144e">
    <diagram id="3z-8oUghlCJOSit_oVyD" name="startup process">
        <mxGraphModel dx="906" dy="1497" grid="1" gridSize="10" guides="1" tooltips="1" connect="1" arrows="1" fold="1" page="1" pageScale="1" pageWidth="1100" pageHeight="850" math="0" shadow="0">
            <root>
                <mxCell id="0"/>
                <mxCell id="1" parent="0"/>
                <mxCell id="Q1epiKyQWok_5G4reBFb-269" value="" style="rounded=0;whiteSpace=wrap;html=1;strokeColor=default;fontSize=25;" parent="1" vertex="1">
                    <mxGeometry x="1510" y="-590" width="390" height="1110" as="geometry"/>
                </mxCell>
                <mxCell id="Q1epiKyQWok_5G4reBFb-230" value="" style="rounded=0;whiteSpace=wrap;html=1;strokeColor=default;fontSize=35;" parent="1" vertex="1">
                    <mxGeometry x="85" y="-650" width="1170" height="1970" as="geometry"/>
                </mxCell>
                <mxCell id="Q1epiKyQWok_5G4reBFb-231" value="" style="rounded=0;whiteSpace=wrap;html=1;strokeColor=default;fontSize=35;" parent="1" vertex="1">
                    <mxGeometry x="200" y="1070" width="940" height="210" as="geometry"/>
                </mxCell>
                <mxCell id="Q1epiKyQWok_5G4reBFb-181" value="" style="rounded=0;whiteSpace=wrap;html=1;strokeColor=default;fontSize=27;" parent="1" vertex="1">
                    <mxGeometry x="200" y="-310" width="940" height="350" as="geometry"/>
                </mxCell>
                <mxCell id="93" value="" style="shape=module;align=left;spacingLeft=20;align=center;verticalAlign=middle;rounded=0;shadow=0;sketch=0;fontSize=30;jettyWidth=34;jettyHeight=12;" parent="1" vertex="1">
                    <mxGeometry x="774.26" y="-261" width="349.01" height="270" as="geometry"/>
                </mxCell>
                <mxCell id="101" value="&lt;font style=&quot;font-size: 26px;&quot;&gt;database&lt;br&gt;MongoDB&lt;br&gt;&lt;/font&gt;" style="shape=datastore;whiteSpace=wrap;html=1;rounded=0;shadow=0;sketch=0;fontSize=16;" parent="1" vertex="1">
                    <mxGeometry x="814.24" y="1132.5" width="174.51" height="110" as="geometry"/>
                </mxCell>
                <mxCell id="Q1epiKyQWok_5G4reBFb-155" style="edgeStyle=none;html=1;entryX=0.5;entryY=0;entryDx=0;entryDy=0;fontSize=26;endArrow=classic;endFill=1;fillColor=default;strokeWidth=6;" parent="1" source="Q1epiKyQWok_5G4reBFb-127" target="101" edge="1">
                    <mxGeometry relative="1" as="geometry">
                        <Array as="points"/>
                    </mxGeometry>
                </mxCell>
                <mxCell id="Q1epiKyQWok_5G4reBFb-171" value="&lt;font style=&quot;font-size: 27px;&quot;&gt;Module Config.py&lt;/font&gt;" style="text;html=1;strokeColor=none;fillColor=none;align=center;verticalAlign=middle;whiteSpace=wrap;rounded=0;fontSize=23;" parent="1" vertex="1">
                    <mxGeometry x="822.0699999999999" y="-252.5" width="261.2" height="43" as="geometry"/>
                </mxCell>
                <mxCell id="Q1epiKyQWok_5G4reBFb-172" value="production config" style="rounded=0;whiteSpace=wrap;html=1;fontSize=27;" parent="1" vertex="1">
                    <mxGeometry x="822.0699999999999" y="-191.22" width="263" height="80" as="geometry"/>
                </mxCell>
                <mxCell id="Q1epiKyQWok_5G4reBFb-173" value="development config" style="rounded=0;whiteSpace=wrap;html=1;fontSize=27;" parent="1" vertex="1">
                    <mxGeometry x="822.0699999999999" y="-91" width="263" height="80" as="geometry"/>
                </mxCell>
                <mxCell id="Q1epiKyQWok_5G4reBFb-143" value="" style="rounded=0;whiteSpace=wrap;html=1;fontSize=25;" parent="1" vertex="1">
                    <mxGeometry x="200" y="40" width="940" height="220" as="geometry"/>
                </mxCell>
                <mxCell id="95" value="logger" style="shape=module;align=right;spacingLeft=20;align=center;verticalAlign=middle;rounded=0;shadow=0;sketch=0;fontSize=25;" parent="1" vertex="1">
                    <mxGeometry x="541.77" y="140.00000000000006" width="236.94" height="69.49" as="geometry"/>
                </mxCell>
                <mxCell id="Q1epiKyQWok_5G4reBFb-129" value="mongo connection" style="shape=module;align=right;spacingLeft=20;align=center;verticalAlign=middle;rounded=0;shadow=0;sketch=0;fontSize=25;" parent="1" vertex="1">
                    <mxGeometry x="250.73000000000002" y="141.04000000000002" width="278.53" height="63.7" as="geometry"/>
                </mxCell>
                <mxCell id="Q1epiKyQWok_5G4reBFb-144" value="Global Object" style="text;html=1;align=center;verticalAlign=middle;resizable=0;points=[];autosize=1;strokeColor=none;fillColor=none;fontSize=25;" parent="1" vertex="1">
                    <mxGeometry x="230.00419773095632" y="70.0045446473381" width="170" height="40" as="geometry"/>
                </mxCell>
                <mxCell id="114" value="" style="rounded=0;whiteSpace=wrap;html=1;shadow=0;sketch=0;fontSize=16;align=left;verticalAlign=top;" parent="1" vertex="1">
                    <mxGeometry x="230" y="-291" width="460" height="291" as="geometry"/>
                </mxCell>
                <mxCell id="115" value="&lt;font style=&quot;font-size: 35px;&quot;&gt;.env file&lt;/font&gt;" style="text;html=1;align=center;verticalAlign=middle;resizable=0;points=[];autosize=1;strokeColor=none;fillColor=none;fontSize=16;" parent="1" vertex="1">
                    <mxGeometry x="250.231182235196" y="-281.00380068207653" width="140" height="60" as="geometry"/>
                </mxCell>
                <mxCell id="Q1epiKyQWok_5G4reBFb-222" value="&lt;font style=&quot;font-size: 35px;&quot;&gt;curl request procedure&lt;/font&gt;" style="text;html=1;align=center;verticalAlign=middle;resizable=0;points=[];autosize=1;strokeColor=none;fillColor=none;fontSize=30;" parent="1" vertex="1">
                    <mxGeometry x="1521.05" y="-790" width="370" height="60" as="geometry"/>
                </mxCell>
                <mxCell id="Q1epiKyQWok_5G4reBFb-206" value="manage.py" style="swimlane;whiteSpace=wrap;html=1;strokeColor=default;fontSize=25;" parent="1" vertex="1" collapsed="1">
                    <mxGeometry x="808.77" y="140.00000000000006" width="280" height="67.64" as="geometry">
                        <mxRectangle x="1128.77" y="510.00000000000006" width="900" height="445" as="alternateBounds"/>
                    </mxGeometry>
                </mxCell>
                <mxCell id="Q1epiKyQWok_5G4reBFb-183" value="command" style="swimlane;whiteSpace=wrap;html=1;strokeColor=default;fontSize=30;align=center;" parent="Q1epiKyQWok_5G4reBFb-206" vertex="1">
                    <mxGeometry x="20" y="235" width="250" height="80" as="geometry"/>
                </mxCell>
                <mxCell id="Q1epiKyQWok_5G4reBFb-184" value="manage.py dev" style="text;html=1;align=center;verticalAlign=middle;resizable=0;points=[];autosize=1;strokeColor=none;fillColor=none;fontSize=30;" parent="Q1epiKyQWok_5G4reBFb-183" vertex="1">
                    <mxGeometry x="10" y="25" width="230" height="50" as="geometry"/>
                </mxCell>
                <mxCell id="Q1epiKyQWok_5G4reBFb-185" value="command" style="swimlane;whiteSpace=wrap;html=1;strokeColor=default;fontSize=30;" parent="Q1epiKyQWok_5G4reBFb-206" vertex="1">
                    <mxGeometry x="20" y="345" width="250" height="80" as="geometry"/>
                </mxCell>
                <mxCell id="Q1epiKyQWok_5G4reBFb-186" value="manage.py prod" style="text;html=1;align=center;verticalAlign=middle;resizable=0;points=[];autosize=1;strokeColor=none;fillColor=none;fontSize=30;" parent="Q1epiKyQWok_5G4reBFb-185" vertex="1">
                    <mxGeometry x="5" y="25" width="240" height="50" as="geometry"/>
                </mxCell>
                <mxCell id="Q1epiKyQWok_5G4reBFb-187" value="&lt;font style=&quot;font-size: 25px;&quot;&gt;flask --app app run --debug --host 0.0.0.0 --port 9091&lt;/font&gt;" style="rounded=0;whiteSpace=wrap;html=1;strokeColor=default;fontSize=30;" parent="Q1epiKyQWok_5G4reBFb-206" vertex="1">
                    <mxGeometry x="270" y="265" width="610" height="50" as="geometry"/>
                </mxCell>
                <mxCell id="Q1epiKyQWok_5G4reBFb-189" value="&lt;font style=&quot;font-size: 25px;&quot;&gt;flask --app app run --debug --host 0.0.0.0 --port 9091&lt;/font&gt;" style="rounded=0;whiteSpace=wrap;html=1;strokeColor=default;fontSize=30;" parent="Q1epiKyQWok_5G4reBFb-206" vertex="1">
                    <mxGeometry x="270" y="375" width="610" height="50" as="geometry"/>
                </mxCell>
                <mxCell id="Q1epiKyQWok_5G4reBFb-190" value="command" style="swimlane;whiteSpace=wrap;html=1;strokeColor=default;fontSize=30;align=center;" parent="Q1epiKyQWok_5G4reBFb-206" vertex="1">
                    <mxGeometry x="20" y="50" width="250" height="80" as="geometry"/>
                </mxCell>
                <mxCell id="Q1epiKyQWok_5G4reBFb-191" value="manage.py test" style="text;html=1;align=center;verticalAlign=middle;resizable=0;points=[];autosize=1;strokeColor=none;fillColor=none;fontSize=30;" parent="Q1epiKyQWok_5G4reBFb-190" vertex="1">
                    <mxGeometry x="10" y="25" width="230" height="50" as="geometry"/>
                </mxCell>
                <mxCell id="Q1epiKyQWok_5G4reBFb-192" value="command" style="swimlane;whiteSpace=wrap;html=1;strokeColor=default;fontSize=30;align=center;" parent="Q1epiKyQWok_5G4reBFb-206" vertex="1">
                    <mxGeometry x="20" y="145" width="250" height="80" as="geometry"/>
                </mxCell>
                <mxCell id="Q1epiKyQWok_5G4reBFb-193" value="manage.py initdb" style="text;html=1;align=center;verticalAlign=middle;resizable=0;points=[];autosize=1;strokeColor=none;fillColor=none;fontSize=30;" parent="Q1epiKyQWok_5G4reBFb-192" vertex="1">
                    <mxGeometry y="25" width="250" height="50" as="geometry"/>
                </mxCell>
                <mxCell id="Q1epiKyQWok_5G4reBFb-226" value="command: curl localhost:80" style="whiteSpace=wrap;html=1;strokeColor=default;fontSize=35;" parent="1" vertex="1">
                    <mxGeometry x="1471.78" y="-710" width="463.55" height="60" as="geometry"/>
                </mxCell>
                <mxCell id="Q1epiKyQWok_5G4reBFb-227" value="" style="rounded=0;whiteSpace=wrap;html=1;strokeColor=default;fontSize=35;" parent="1" vertex="1">
                    <mxGeometry x="195" y="-570" width="940" height="180" as="geometry"/>
                </mxCell>
                <mxCell id="Q1epiKyQWok_5G4reBFb-228" value="Nginx" style="rounded=1;whiteSpace=wrap;html=1;strokeColor=default;fontSize=35;" parent="1" vertex="1">
                    <mxGeometry x="1543.55" y="-500" width="320" height="60" as="geometry"/>
                </mxCell>
                <mxCell id="Q1epiKyQWok_5G4reBFb-232" value="docker service: Mongo" style="text;html=1;strokeColor=none;fillColor=none;align=center;verticalAlign=middle;whiteSpace=wrap;rounded=0;fontSize=35;" parent="1" vertex="1">
                    <mxGeometry x="220" y="1090" width="430" height="60" as="geometry"/>
                </mxCell>
                <mxCell id="Q1epiKyQWok_5G4reBFb-233" value="port" style="rounded=0;whiteSpace=wrap;html=1;strokeColor=default;fontSize=35;" parent="1" vertex="1">
                    <mxGeometry x="1090" y="1165" width="110" height="45" as="geometry"/>
                </mxCell>
                <mxCell id="Q1epiKyQWok_5G4reBFb-234" value="27017" style="text;html=1;strokeColor=none;fillColor=none;align=center;verticalAlign=middle;whiteSpace=wrap;rounded=0;fontSize=35;" parent="1" vertex="1">
                    <mxGeometry x="1049.01" y="1110" width="60" height="30" as="geometry"/>
                </mxCell>
                <mxCell id="Q1epiKyQWok_5G4reBFb-235" value="port" style="rounded=0;whiteSpace=wrap;html=1;strokeColor=default;fontSize=35;" parent="1" vertex="1">
                    <mxGeometry x="1195" y="-500" width="115" height="40" as="geometry"/>
                </mxCell>
                <mxCell id="Q1epiKyQWok_5G4reBFb-237" value="&lt;font style=&quot;font-size: 35px;&quot;&gt;docker service: web&lt;/font&gt;" style="text;html=1;strokeColor=none;fillColor=none;align=center;verticalAlign=middle;whiteSpace=wrap;rounded=0;fontSize=30;" parent="1" vertex="1">
                    <mxGeometry x="195" y="-570" width="378.51" height="60" as="geometry"/>
                </mxCell>
                <mxCell id="Q1epiKyQWok_5G4reBFb-238" value="port" style="rounded=0;whiteSpace=wrap;html=1;strokeColor=default;fontSize=35;" parent="1" vertex="1">
                    <mxGeometry x="1090" y="-500" width="110" height="40" as="geometry"/>
                </mxCell>
                <mxCell id="Q1epiKyQWok_5G4reBFb-239" value="80" style="text;html=1;strokeColor=none;fillColor=none;align=center;verticalAlign=middle;whiteSpace=wrap;rounded=0;fontSize=35;" parent="1" vertex="1">
                    <mxGeometry x="1060" y="-545" width="60" height="30" as="geometry"/>
                </mxCell>
                <mxCell id="Q1epiKyQWok_5G4reBFb-240" value="80" style="text;html=1;strokeColor=none;fillColor=none;align=center;verticalAlign=middle;whiteSpace=wrap;rounded=0;fontSize=35;" parent="1" vertex="1">
                    <mxGeometry x="1260" y="-545" width="60" height="30" as="geometry"/>
                </mxCell>
                <mxCell id="Q1epiKyQWok_5G4reBFb-241" value="port" style="rounded=0;whiteSpace=wrap;html=1;strokeColor=default;fontSize=35;" parent="1" vertex="1">
                    <mxGeometry x="1195" y="1165" width="105" height="45" as="geometry"/>
                </mxCell>
                <mxCell id="Q1epiKyQWok_5G4reBFb-243" value="27017" style="text;html=1;strokeColor=none;fillColor=none;align=center;verticalAlign=middle;whiteSpace=wrap;rounded=0;fontSize=35;" parent="1" vertex="1">
                    <mxGeometry x="1290" y="1120" width="60" height="30" as="geometry"/>
                </mxCell>
                <mxCell id="Q1epiKyQWok_5G4reBFb-245" value="" style="group" parent="1" vertex="1" connectable="0">
                    <mxGeometry x="670" y="260" width="550" height="730" as="geometry"/>
                </mxCell>
                <mxCell id="Q1epiKyQWok_5G4reBFb-201" value="" style="rounded=0;whiteSpace=wrap;html=1;strokeColor=default;fontSize=25;" parent="Q1epiKyQWok_5G4reBFb-245" vertex="1">
                    <mxGeometry width="470" height="730" as="geometry"/>
                </mxCell>
                <mxCell id="Q1epiKyQWok_5G4reBFb-217" value="" style="rounded=0;whiteSpace=wrap;html=1;strokeColor=default;fontSize=25;" parent="Q1epiKyQWok_5G4reBFb-245" vertex="1">
                    <mxGeometry x="40.99000000000001" y="123.61000000000001" width="379.01" height="180" as="geometry"/>
                </mxCell>
                <mxCell id="Q1epiKyQWok_5G4reBFb-125" value="route" style="shape=process;whiteSpace=wrap;html=1;backgroundOutline=1;fontSize=25;direction=south;" parent="Q1epiKyQWok_5G4reBFb-245" vertex="1">
                    <mxGeometry x="145.49" y="180" width="170" height="100" as="geometry"/>
                </mxCell>
                <mxCell id="Q1epiKyQWok_5G4reBFb-126" value="service" style="shape=process;whiteSpace=wrap;html=1;backgroundOutline=1;fontSize=25;direction=south;" parent="Q1epiKyQWok_5G4reBFb-245" vertex="1">
                    <mxGeometry x="146.49" y="410" width="170" height="95" as="geometry"/>
                </mxCell>
                <mxCell id="Q1epiKyQWok_5G4reBFb-127" value="repository" style="shape=process;whiteSpace=wrap;html=1;backgroundOutline=1;fontSize=25;direction=south;" parent="Q1epiKyQWok_5G4reBFb-245" vertex="1">
                    <mxGeometry x="151.49" y="574.26" width="160" height="90" as="geometry"/>
                </mxCell>
                <mxCell id="Q1epiKyQWok_5G4reBFb-198" value="" style="shape=flexArrow;endArrow=classic;html=1;strokeWidth=6;fontSize=25;endSize=6;fillColor=default;jumpSize=1;exitX=1;exitY=0.5;exitDx=0;exitDy=0;entryX=0;entryY=0.5;entryDx=0;entryDy=0;" parent="Q1epiKyQWok_5G4reBFb-245" source="Q1epiKyQWok_5G4reBFb-126" target="Q1epiKyQWok_5G4reBFb-127" edge="1">
                    <mxGeometry width="50" height="50" relative="1" as="geometry">
                        <mxPoint x="251" y="460.74" as="sourcePoint"/>
                        <mxPoint x="301" y="410.74" as="targetPoint"/>
                    </mxGeometry>
                </mxCell>
                <mxCell id="Q1epiKyQWok_5G4reBFb-200" value="" style="shape=flexArrow;endArrow=classic;html=1;strokeWidth=6;fontSize=25;endSize=6;fillColor=default;jumpSize=1;exitX=0.5;exitY=1;exitDx=0;exitDy=0;entryX=0;entryY=0.5;entryDx=0;entryDy=0;" parent="Q1epiKyQWok_5G4reBFb-245" source="Q1epiKyQWok_5G4reBFb-217" target="Q1epiKyQWok_5G4reBFb-126" edge="1">
                    <mxGeometry width="50" height="50" relative="1" as="geometry">
                        <mxPoint x="151.49" y="384.35" as="sourcePoint"/>
                        <mxPoint x="201.49" y="334.35" as="targetPoint"/>
                    </mxGeometry>
                </mxCell>
                <mxCell id="Q1epiKyQWok_5G4reBFb-202" value="&lt;font style=&quot;font-size: 30px;&quot;&gt;Application Part&lt;/font&gt;" style="text;html=1;align=center;verticalAlign=middle;resizable=0;points=[];autosize=1;strokeColor=none;fillColor=none;fontSize=26;" parent="Q1epiKyQWok_5G4reBFb-245" vertex="1">
                    <mxGeometry x="109.25517241379316" y="35.00054945054944" width="230" height="50" as="geometry"/>
                </mxCell>
                <mxCell id="Q1epiKyQWok_5G4reBFb-219" value="Wrapped by Flask App Object" style="text;html=1;strokeColor=none;fillColor=none;align=center;verticalAlign=middle;whiteSpace=wrap;rounded=0;fontSize=25;" parent="Q1epiKyQWok_5G4reBFb-245" vertex="1">
                    <mxGeometry x="50" y="130" width="344.5" height="30" as="geometry"/>
                </mxCell>
                <mxCell id="Q1epiKyQWok_5G4reBFb-260" value="&lt;font style=&quot;font-size: 25px;&quot;&gt;9091&lt;/font&gt;" style="rounded=0;whiteSpace=wrap;html=1;strokeColor=default;fontSize=35;" parent="Q1epiKyQWok_5G4reBFb-245" vertex="1">
                    <mxGeometry x="440" y="110" width="100" height="40" as="geometry"/>
                </mxCell>
                <mxCell id="Q1epiKyQWok_5G4reBFb-246" value="" style="group" parent="1" vertex="1" connectable="0">
                    <mxGeometry x="200" y="260" width="410" height="730" as="geometry"/>
                </mxCell>
                <mxCell id="Q1epiKyQWok_5G4reBFb-208" value="" style="rounded=0;whiteSpace=wrap;html=1;fontSize=25;" parent="Q1epiKyQWok_5G4reBFb-246" vertex="1">
                    <mxGeometry width="410" height="730" as="geometry"/>
                </mxCell>
                <mxCell id="Q1epiKyQWok_5G4reBFb-209" value="&lt;font style=&quot;font-size: 35px;&quot;&gt;pytest folder&lt;/font&gt;" style="text;html=1;align=center;verticalAlign=middle;resizable=0;points=[];autosize=1;strokeColor=none;fillColor=none;fontSize=26;" parent="Q1epiKyQWok_5G4reBFb-246" vertex="1">
                    <mxGeometry x="79.99517241379317" y="40.00054945054944" width="210" height="60" as="geometry"/>
                </mxCell>
                <mxCell id="Q1epiKyQWok_5G4reBFb-210" value="test application" style="rounded=0;whiteSpace=wrap;html=1;fontSize=25;flipV=1;" parent="Q1epiKyQWok_5G4reBFb-246" vertex="1">
                    <mxGeometry x="40" y="150" width="310" height="77.8" as="geometry"/>
                </mxCell>
                <mxCell id="Q1epiKyQWok_5G4reBFb-211" value="" style="group" parent="Q1epiKyQWok_5G4reBFb-246" vertex="1" connectable="0">
                    <mxGeometry x="40" y="324" width="310" height="320.74" as="geometry"/>
                </mxCell>
                <mxCell id="Q1epiKyQWok_5G4reBFb-212" value="" style="rounded=0;whiteSpace=wrap;html=1;fontSize=22;container=0;" parent="Q1epiKyQWok_5G4reBFb-211" vertex="1">
                    <mxGeometry width="310" height="320.74" as="geometry"/>
                </mxCell>
                <mxCell id="Q1epiKyQWok_5G4reBFb-214" value="test service" style="rounded=0;whiteSpace=wrap;html=1;fontSize=25;flipV=1;container=0;" parent="Q1epiKyQWok_5G4reBFb-211" vertex="1">
                    <mxGeometry x="26.46" y="125.998969375" width="257.07" height="58.324564374999994" as="geometry"/>
                </mxCell>
                <mxCell id="Q1epiKyQWok_5G4reBFb-215" value="test repository" style="rounded=0;whiteSpace=wrap;html=1;fontSize=25;flipV=1;container=0;" parent="Q1epiKyQWok_5G4reBFb-211" vertex="1">
                    <mxGeometry x="30" y="240.55499999999998" width="257.07" height="57.9336625" as="geometry"/>
                </mxCell>
                <mxCell id="Q1epiKyQWok_5G4reBFb-216" value="&lt;font style=&quot;font-size: 30px;&quot;&gt;local test&lt;/font&gt;" style="text;html=1;strokeColor=none;fillColor=none;align=center;verticalAlign=middle;whiteSpace=wrap;rounded=0;fontSize=22;container=0;" parent="Q1epiKyQWok_5G4reBFb-211" vertex="1">
                    <mxGeometry x="89.99" y="16.003124999999997" width="130" height="50.115624999999994" as="geometry"/>
                </mxCell>
                <mxCell id="Q1epiKyQWok_5G4reBFb-251" style="edgeStyle=none;jumpSize=1;html=1;exitX=1;exitY=0.5;exitDx=0;exitDy=0;strokeWidth=6;fontSize=35;endArrow=none;endFill=0;fillColor=default;" parent="1" source="Q1epiKyQWok_5G4reBFb-214" target="Q1epiKyQWok_5G4reBFb-126" edge="1">
                    <mxGeometry relative="1" as="geometry"/>
                </mxCell>
                <mxCell id="Q1epiKyQWok_5G4reBFb-252" style="edgeStyle=none;jumpSize=1;html=1;exitX=1;exitY=0.5;exitDx=0;exitDy=0;entryX=0.5;entryY=1;entryDx=0;entryDy=0;strokeWidth=6;fontSize=35;endArrow=none;endFill=0;fillColor=default;" parent="1" source="Q1epiKyQWok_5G4reBFb-215" target="Q1epiKyQWok_5G4reBFb-127" edge="1">
                    <mxGeometry relative="1" as="geometry"/>
                </mxCell>
                <mxCell id="Q1epiKyQWok_5G4reBFb-253" value="" style="sketch=0;pointerEvents=1;shadow=0;dashed=0;html=1;strokeColor=#666666;fillColor=#f5f5f5;labelPosition=center;verticalLabelPosition=bottom;verticalAlign=top;outlineConnect=0;align=center;shape=mxgraph.office.servers.reverse_proxy;fontSize=35;fontColor=#333333;" parent="1" vertex="1">
                    <mxGeometry x="271.26" y="-500" width="126" height="92" as="geometry"/>
                </mxCell>
                <mxCell id="Q1epiKyQWok_5G4reBFb-255" value="Nginx" style="text;html=1;strokeColor=none;fillColor=none;align=center;verticalAlign=middle;whiteSpace=wrap;rounded=0;fontSize=35;" parent="1" vertex="1">
                    <mxGeometry x="427.26" y="-465" width="60" height="30" as="geometry"/>
                </mxCell>
                <mxCell id="Q1epiKyQWok_5G4reBFb-258" value="" style="shape=step;perimeter=stepPerimeter;whiteSpace=wrap;html=1;fixedSize=1;strokeColor=default;fontSize=35;rotation=90;" parent="1" vertex="1">
                    <mxGeometry x="1634.6399999999999" y="-592.03" width="149.68" height="34.37" as="geometry"/>
                </mxCell>
                <mxCell id="Q1epiKyQWok_5G4reBFb-259" value="Flask APP" style="rounded=1;whiteSpace=wrap;html=1;strokeColor=default;fontSize=35;" parent="1" vertex="1">
                    <mxGeometry x="1543.55" y="420" width="320" height="60" as="geometry"/>
                </mxCell>
                <mxCell id="Q1epiKyQWok_5G4reBFb-261" value="&lt;font style=&quot;font-size: 25px;&quot;&gt;9090&lt;/font&gt;" style="rounded=0;whiteSpace=wrap;html=1;strokeColor=default;fontSize=35;" parent="1" vertex="1">
                    <mxGeometry x="1109.01" y="430" width="100" height="40" as="geometry"/>
                </mxCell>
                <mxCell id="Q1epiKyQWok_5G4reBFb-262" value="" style="shape=step;perimeter=stepPerimeter;whiteSpace=wrap;html=1;fixedSize=1;strokeColor=default;fontSize=35;rotation=90;" parent="1" vertex="1">
                    <mxGeometry x="1280" y="-25.369999999999997" width="858.96" height="34.37" as="geometry"/>
                </mxCell>
                <mxCell id="Q1epiKyQWok_5G4reBFb-264" value="&lt;font style=&quot;font-size: 35px;&quot;&gt;pytest&lt;/font&gt;" style="text;html=1;align=center;verticalAlign=middle;resizable=0;points=[];autosize=1;strokeColor=none;fillColor=none;fontSize=30;" parent="1" vertex="1">
                    <mxGeometry x="2150" y="-790" width="120" height="60" as="geometry"/>
                </mxCell>
                <mxCell id="Q1epiKyQWok_5G4reBFb-265" value="command: pytest [options]" style="whiteSpace=wrap;html=1;strokeColor=default;fontSize=35;" parent="1" vertex="1">
                    <mxGeometry x="1977.5" y="-710" width="422.5" height="60" as="geometry"/>
                </mxCell>
                <mxCell id="Q1epiKyQWok_5G4reBFb-266" value="" style="shape=step;perimeter=stepPerimeter;whiteSpace=wrap;html=1;fixedSize=1;strokeColor=default;fontSize=35;rotation=90;" parent="1" vertex="1">
                    <mxGeometry x="1655.44" y="-130.54" width="1066.62" height="34.37" as="geometry"/>
                </mxCell>
                <mxCell id="Q1epiKyQWok_5G4reBFb-267" value="pytest test item" style="rounded=1;whiteSpace=wrap;html=1;strokeColor=default;fontSize=35;" parent="1" vertex="1">
                    <mxGeometry x="2030" y="420" width="320" height="60" as="geometry"/>
                </mxCell>
                <mxCell id="Q1epiKyQWok_5G4reBFb-270" value="&lt;font style=&quot;font-size: 35px;&quot;&gt;docker&lt;/font&gt;" style="text;html=1;strokeColor=none;fillColor=none;align=center;verticalAlign=middle;whiteSpace=wrap;rounded=0;fontSize=25;" parent="1" vertex="1">
                    <mxGeometry x="1550" y="-570" width="60" height="30" as="geometry"/>
                </mxCell>
                <mxCell id="Q1epiKyQWok_5G4reBFb-277" value="&lt;span style=&quot;text-align: left;&quot;&gt;app execute environment determined by .env file&lt;/span&gt;" style="whiteSpace=wrap;html=1;shape=mxgraph.basic.document;fontSize=20;fillColor=#4D4D4D;" parent="1" vertex="1">
                    <mxGeometry x="270" y="-130.54" width="150" height="121" as="geometry"/>
                </mxCell>
                <mxCell id="Q1epiKyQWok_5G4reBFb-278" value="" style="group" parent="1" vertex="1" connectable="0">
                    <mxGeometry x="270" y="-270" width="374.72" height="205.12" as="geometry"/>
                </mxCell>
                <mxCell id="118" value="&lt;font style=&quot;font-size: 25px;&quot;&gt;.env.prod&lt;/font&gt;" style="rounded=0;whiteSpace=wrap;html=1;shadow=0;sketch=0;fontSize=16;" parent="Q1epiKyQWok_5G4reBFb-278" vertex="1">
                    <mxGeometry x="236.19000000000005" y="75.37" width="138.53" height="54.63" as="geometry"/>
                </mxCell>
                <mxCell id="120" value="&lt;font style=&quot;font-size: 25px;&quot;&gt;.env.test&lt;/font&gt;" style="rounded=0;whiteSpace=wrap;html=1;shadow=0;sketch=0;fontSize=16;" parent="Q1epiKyQWok_5G4reBFb-278" vertex="1">
                    <mxGeometry x="234.72000000000003" y="150.49" width="140" height="54.63" as="geometry"/>
                </mxCell>
                <mxCell id="121" value="&lt;font style=&quot;font-size: 25px;&quot;&gt;.env&lt;/font&gt;" style="rounded=0;whiteSpace=wrap;html=1;shadow=0;sketch=0;fontSize=16;" parent="Q1epiKyQWok_5G4reBFb-278" vertex="1">
                    <mxGeometry y="74.88" width="144.72" height="55.12" as="geometry"/>
                </mxCell>
                <mxCell id="Q1epiKyQWok_5G4reBFb-271" value="&lt;font style=&quot;font-size: 25px;&quot;&gt;.env.dev&lt;/font&gt;" style="rounded=0;whiteSpace=wrap;html=1;shadow=0;sketch=0;fontSize=16;" parent="Q1epiKyQWok_5G4reBFb-278" vertex="1">
                    <mxGeometry x="234.72000000000003" width="140" height="51.7" as="geometry"/>
                </mxCell>
                <mxCell id="Q1epiKyQWok_5G4reBFb-274" value="" style="verticalLabelPosition=bottom;align=center;dashed=0;html=1;verticalAlign=top;shape=mxgraph.pid.piping.hose_connection;pointerEvents=1;strokeColor=default;fontSize=35;" parent="Q1epiKyQWok_5G4reBFb-278" vertex="1">
                    <mxGeometry x="144.72000000000003" y="27.560000000000002" width="90" height="150" as="geometry"/>
                </mxCell>
                <mxCell id="Q1epiKyQWok_5G4reBFb-275" value="" style="verticalLabelPosition=bottom;shadow=0;dashed=0;align=center;html=1;verticalAlign=top;strokeWidth=1;shape=mxgraph.mockup.markup.line;strokeColor=#FFFFFF;fontSize=35;fillColor=#eeeeee;" parent="Q1epiKyQWok_5G4reBFb-278" vertex="1">
                    <mxGeometry x="186.49" y="92.44" width="48.23" height="20" as="geometry"/>
                </mxCell>
                <mxCell id="122" value="&lt;font style=&quot;font-size: 20px;&quot;&gt;CORS&lt;/font&gt;" style="rounded=0;whiteSpace=wrap;html=1;" vertex="1" parent="1">
                    <mxGeometry x="541.77" y="-505" width="80" height="45" as="geometry"/>
                </mxCell>
            </root>
        </mxGraphModel>
    </diagram>
    <diagram id="vSUuXSfijKggpI7CNVVb" name="request">
        <mxGraphModel dx="906" dy="647" grid="1" gridSize="10" guides="1" tooltips="1" connect="1" arrows="1" fold="1" page="1" pageScale="1" pageWidth="850" pageHeight="1100" math="0" shadow="0">
            <root>
                <mxCell id="0"/>
                <mxCell id="1" parent="0"/>
            </root>
        </mxGraphModel>
    </diagram>
    <diagram id="oKcckGNsHqdbWxfklmKm" name="development">
        <mxGraphModel dx="1394" dy="995" grid="1" gridSize="10" guides="1" tooltips="1" connect="1" arrows="1" fold="1" page="1" pageScale="1" pageWidth="1100" pageHeight="850" math="0" shadow="0">
            <root>
                <mxCell id="0"/>
                <mxCell id="1" parent="0"/>
                <mxCell id="OjIWXoHQc7ak6gnnA5ae-34" value="" style="rounded=0;whiteSpace=wrap;html=1;fontSize=14;" vertex="1" parent="1">
                    <mxGeometry x="130" y="80" width="820" height="630" as="geometry"/>
                </mxCell>
                <mxCell id="OjIWXoHQc7ak6gnnA5ae-4" value="" style="swimlane;startSize=0;fontSize=21;align=center;" vertex="1" parent="1">
                    <mxGeometry x="600" y="160" width="310" height="510" as="geometry"/>
                </mxCell>
                <mxCell id="OjIWXoHQc7ak6gnnA5ae-43" style="edgeStyle=none;html=1;fontSize=25;endArrow=classic;endFill=1;fillColor=default;" edge="1" parent="OjIWXoHQc7ak6gnnA5ae-4" source="OjIWXoHQc7ak6gnnA5ae-8" target="OjIWXoHQc7ak6gnnA5ae-22">
                    <mxGeometry relative="1" as="geometry"/>
                </mxCell>
                <mxCell id="OjIWXoHQc7ak6gnnA5ae-8" value="Flask Application&lt;br&gt;API" style="rounded=1;whiteSpace=wrap;html=1;fontSize=21;align=center;" vertex="1" parent="OjIWXoHQc7ak6gnnA5ae-4">
                    <mxGeometry x="85" y="300" width="200" height="70" as="geometry"/>
                </mxCell>
                <mxCell id="OjIWXoHQc7ak6gnnA5ae-41" style="edgeStyle=none;html=1;entryX=0.5;entryY=0;entryDx=0;entryDy=0;fontSize=25;endArrow=classic;endFill=1;fillColor=default;" edge="1" parent="OjIWXoHQc7ak6gnnA5ae-4" source="OjIWXoHQc7ak6gnnA5ae-10" target="OjIWXoHQc7ak6gnnA5ae-23">
                    <mxGeometry relative="1" as="geometry"/>
                </mxCell>
                <mxCell id="OjIWXoHQc7ak6gnnA5ae-10" value="NextJs&lt;br&gt;User Interface" style="rounded=1;whiteSpace=wrap;html=1;fontSize=21;align=center;" vertex="1" parent="OjIWXoHQc7ak6gnnA5ae-4">
                    <mxGeometry x="85" y="50" width="200" height="80" as="geometry"/>
                </mxCell>
                <mxCell id="OjIWXoHQc7ak6gnnA5ae-14" value="Docker" style="text;html=1;align=center;verticalAlign=middle;resizable=0;points=[];autosize=1;strokeColor=none;fillColor=none;fontSize=21;" vertex="1" parent="OjIWXoHQc7ak6gnnA5ae-4">
                    <mxGeometry x="135" width="90" height="40" as="geometry"/>
                </mxCell>
                <mxCell id="OjIWXoHQc7ak6gnnA5ae-22" value="MongoDB&#10;database" style="shape=module;align=left;spacingLeft=20;align=center;verticalAlign=middle;fontSize=21;" vertex="1" parent="OjIWXoHQc7ak6gnnA5ae-4">
                    <mxGeometry x="80" y="410" width="210" height="80" as="geometry"/>
                </mxCell>
                <mxCell id="OjIWXoHQc7ak6gnnA5ae-30" style="edgeStyle=none;html=1;entryX=1.052;entryY=0.436;entryDx=0;entryDy=0;entryPerimeter=0;fontSize=14;exitX=0;exitY=0;exitDx=0;exitDy=15;exitPerimeter=0;" edge="1" parent="OjIWXoHQc7ak6gnnA5ae-4" source="OjIWXoHQc7ak6gnnA5ae-23" target="OjIWXoHQc7ak6gnnA5ae-25">
                    <mxGeometry relative="1" as="geometry"/>
                </mxCell>
                <mxCell id="OjIWXoHQc7ak6gnnA5ae-42" style="edgeStyle=none;html=1;fontSize=25;endArrow=classic;endFill=1;fillColor=default;" edge="1" parent="OjIWXoHQc7ak6gnnA5ae-4" source="OjIWXoHQc7ak6gnnA5ae-23" target="OjIWXoHQc7ak6gnnA5ae-8">
                    <mxGeometry relative="1" as="geometry"/>
                </mxCell>
                <mxCell id="OjIWXoHQc7ak6gnnA5ae-23" value="Nginx&#10;Gateway" style="shape=module;align=left;spacingLeft=20;align=center;verticalAlign=middle;fontSize=21;" vertex="1" parent="OjIWXoHQc7ak6gnnA5ae-4">
                    <mxGeometry x="80" y="180" width="210" height="80" as="geometry"/>
                </mxCell>
                <mxCell id="OjIWXoHQc7ak6gnnA5ae-25" value="" style="rounded=0;whiteSpace=wrap;html=1;fontSize=21;" vertex="1" parent="OjIWXoHQc7ak6gnnA5ae-4">
                    <mxGeometry x="-20" y="185" width="40" height="20" as="geometry"/>
                </mxCell>
                <mxCell id="OjIWXoHQc7ak6gnnA5ae-27" value="port" style="text;html=1;align=center;verticalAlign=middle;resizable=0;points=[];autosize=1;strokeColor=none;fillColor=none;fontSize=14;spacing=0;" vertex="1" parent="OjIWXoHQc7ak6gnnA5ae-4">
                    <mxGeometry x="95" y="180" width="40" height="30" as="geometry"/>
                </mxCell>
                <mxCell id="OjIWXoHQc7ak6gnnA5ae-28" value="80" style="text;html=1;align=center;verticalAlign=middle;resizable=0;points=[];autosize=1;strokeColor=none;fillColor=none;fontSize=14;spacing=0;" vertex="1" parent="OjIWXoHQc7ak6gnnA5ae-4">
                    <mxGeometry x="45" y="170" width="40" height="30" as="geometry"/>
                </mxCell>
                <mxCell id="OjIWXoHQc7ak6gnnA5ae-32" value="" style="rounded=0;whiteSpace=wrap;html=1;fontSize=21;" vertex="1" parent="OjIWXoHQc7ak6gnnA5ae-4">
                    <mxGeometry x="-20" y="375" width="40" height="20" as="geometry"/>
                </mxCell>
                <mxCell id="OjIWXoHQc7ak6gnnA5ae-16" value="" style="swimlane;startSize=0;fontSize=21;align=center;" vertex="1" parent="1">
                    <mxGeometry x="180" y="160" width="300" height="250" as="geometry"/>
                </mxCell>
                <mxCell id="OjIWXoHQc7ak6gnnA5ae-18" value="Flask Application&lt;br&gt;API" style="rounded=1;whiteSpace=wrap;html=1;fontSize=21;align=center;" vertex="1" parent="OjIWXoHQc7ak6gnnA5ae-16">
                    <mxGeometry x="50" y="150" width="200" height="70" as="geometry"/>
                </mxCell>
                <mxCell id="OjIWXoHQc7ak6gnnA5ae-20" value="NextJs&lt;br&gt;User Interface" style="rounded=1;whiteSpace=wrap;html=1;fontSize=21;align=center;" vertex="1" parent="OjIWXoHQc7ak6gnnA5ae-16">
                    <mxGeometry x="50" y="55" width="200" height="70" as="geometry"/>
                </mxCell>
                <mxCell id="OjIWXoHQc7ak6gnnA5ae-21" value="Local" style="text;html=1;align=center;verticalAlign=middle;resizable=0;points=[];autosize=1;strokeColor=none;fillColor=none;fontSize=21;" vertex="1" parent="OjIWXoHQc7ak6gnnA5ae-16">
                    <mxGeometry x="115" y="10" width="70" height="40" as="geometry"/>
                </mxCell>
                <mxCell id="OjIWXoHQc7ak6gnnA5ae-29" value="80" style="text;html=1;align=center;verticalAlign=middle;resizable=0;points=[];autosize=1;strokeColor=none;fillColor=none;fontSize=14;spacing=0;" vertex="1" parent="1">
                    <mxGeometry x="560" y="320" width="40" height="30" as="geometry"/>
                </mxCell>
                <mxCell id="OjIWXoHQc7ak6gnnA5ae-33" value="27017" style="text;html=1;align=center;verticalAlign=middle;resizable=0;points=[];autosize=1;strokeColor=none;fillColor=none;fontSize=14;spacing=0;" vertex="1" parent="1">
                    <mxGeometry x="540" y="510" width="60" height="30" as="geometry"/>
                </mxCell>
                <mxCell id="OjIWXoHQc7ak6gnnA5ae-35" value="local machine" style="text;html=1;strokeColor=none;fillColor=none;align=center;verticalAlign=middle;whiteSpace=wrap;rounded=0;fontSize=39;" vertex="1" parent="1">
                    <mxGeometry x="390" y="90" width="300" height="50" as="geometry"/>
                </mxCell>
                <mxCell id="OjIWXoHQc7ak6gnnA5ae-39" style="edgeStyle=none;html=1;exitX=1;exitY=0.5;exitDx=0;exitDy=0;entryX=0;entryY=0.5;entryDx=0;entryDy=0;fontSize=25;shape=flexArrow;endArrow=none;endFill=0;fillColor=default;" edge="1" parent="1" source="OjIWXoHQc7ak6gnnA5ae-20" target="OjIWXoHQc7ak6gnnA5ae-10">
                    <mxGeometry relative="1" as="geometry"/>
                </mxCell>
                <mxCell id="OjIWXoHQc7ak6gnnA5ae-40" style="edgeStyle=none;shape=flexArrow;html=1;fontSize=25;endArrow=none;endFill=0;fillColor=default;entryX=0;entryY=0.5;entryDx=0;entryDy=0;exitX=1;exitY=0.5;exitDx=0;exitDy=0;" edge="1" parent="1" source="OjIWXoHQc7ak6gnnA5ae-18" target="OjIWXoHQc7ak6gnnA5ae-8">
                    <mxGeometry relative="1" as="geometry"/>
                </mxCell>
                <mxCell id="OjIWXoHQc7ak6gnnA5ae-45" value="" style="group" vertex="1" connectable="0" parent="1">
                    <mxGeometry x="180" y="480" width="300" height="55" as="geometry"/>
                </mxCell>
                <mxCell id="OjIWXoHQc7ak6gnnA5ae-36" value="" style="rounded=0;whiteSpace=wrap;html=1;fontSize=39;" vertex="1" parent="OjIWXoHQc7ak6gnnA5ae-45">
                    <mxGeometry width="300" height="52.37941176470588" as="geometry"/>
                </mxCell>
            </root>
        </mxGraphModel>
    </diagram>
</mxfile>